# xmcd CD database file
#
# Track frame offsets:
#	150
#	13589
#	27266
#	27730
#	47422
#	67903
#	78430
#	94789
#	112779
#	126687
#	142304
#	158393
#
# Disc length: 2294 seconds
#
# Revision: 5
# Processed by: cddbd v1.5.1PL2 Copyright (c) Steve Scherf et al.
# Submitted via: CDex 1.70beta2
#
DISCID=9808f40c
DTITLE=Patsy Cline - Duets
DYEAR=2004
DGENRE=Country
TTITLE0=Life' Railway to Heaven [Duet with Willie Nelson]
TTITLE1=That Wonderful Someone [Duet with Bob Carlisle]
TTITLE2=Intro
TTITLE3=There He Goes [Duet with John Berry]
TTITLE4=If I Could Stay Asleep [Duet with Beth Nelson Chapman]
TTITLE5=Too Many Secrets [Duet with Glen Campbell]
TTITLE6=Crazy Dreams [Duet with Mila Mason]
TTITLE7=Just Out of Reach [Duet with Waylon Jennings]
TTITLE8=I Can't Forget You [Duet with Crystal Gayle]
TTITLE9=Walkin' After Midnight [Duet with Michelle Wright]
TTITLE10=Hungry for Love [Extended Version]
TTITLE11=How Can I Face Tomorrow [Extended Version]
EXTD=YEAR: 2004
EXTT0=
EXTT1=
EXTT2=
EXTT3=
EXTT4=
EXTT5=
EXTT6=
EXTT7=
EXTT8=
EXTT9=
EXTT10=
EXTT11=
PLAYORDER=
